<svg width="715" height="101" viewBox="0 0 715 101" fill="none" xmlns="http://www.w3.org/2000/svg">
<g filter="url(#filter0_d_84_13)">
<mask id="path-1-outside-1_84_13" maskUnits="userSpaceOnUse" x="-10" y="-8" width="728" height="104" fill="black">
<rect fill="white" x="-10" y="-8" width="728" height="104"/>
<path d="M26.625 0.5H67.25V25.5H26.625C25.75 25.5 25 25.8125 24.375 26.4375C23.7917 27.0208 23.5 27.75 23.5 28.625C23.5 29.5 23.7917 30.25 24.375 30.875C25 31.4583 25.75 31.75 26.625 31.75H39.125C46.875 31.75 53.5 34.5 59 40C64.5 45.5 67.25 52.125 67.25 59.875C67.25 67.625 64.5 74.25 59 79.75C53.5 85.25 46.875 88 39.125 88H-1.5V63H39.125C40 63 40.7292 62.7083 41.3125 62.125C41.9375 61.5 42.25 60.75 42.25 59.875C42.25 59 41.9375 58.2708 41.3125 57.6875C40.7292 57.0625 40 56.75 39.125 56.75H26.625C18.875 56.75 12.25 54 6.75 48.5C1.25 43 -1.5 36.375 -1.5 28.625C-1.5 20.875 1.25 14.25 6.75 8.75C12.25 3.25 18.875 0.5 26.625 0.5ZM117.25 0.5C129.333 0.5 139.646 4.77083 148.188 13.3125C155.979 21.1042 160.208 30.375 160.875 41.125H135.75C135.167 37.25 133.417 33.8542 130.5 30.9375C126.833 27.3125 122.417 25.5 117.25 25.5C112.083 25.5 107.667 27.3333 104 31C100.333 34.625 98.5 39.0417 98.5 44.25C98.5 49.4167 100.333 53.8333 104 57.5C107.667 61.1667 112.083 63 117.25 63C122.417 63 126.833 61.1667 130.5 57.5C133.417 54.5833 135.167 51.2083 135.75 47.375H160.875C160.208 58.125 155.979 67.3958 148.188 75.1875C139.646 83.7292 129.333 88 117.25 88C105.167 88 94.8542 83.7292 86.3125 75.1875C77.7708 66.6458 73.5 56.3333 73.5 44.25C73.5 32.1667 77.7708 21.8542 86.3125 13.3125C94.8542 4.77083 105.167 0.5 117.25 0.5ZM167.25 0.5H207.875C215.625 0.5 222.25 3.25 227.75 8.75C233.25 14.25 236 20.875 236 28.625C236 36.375 233.25 43 227.75 48.5C226.083 50.1667 224.312 51.5833 222.438 52.75L236 88H209.125L197.062 56.75H192.25V88H167.25V0.5ZM192.25 25.5V31.75H207.875C208.75 31.75 209.479 31.4583 210.062 30.875C210.688 30.25 211 29.5 211 28.625C211 27.75 210.688 27.0208 210.062 26.4375C209.479 25.8125 208.75 25.5 207.875 25.5H192.25ZM286 63C291.167 63 295.583 61.1667 299.25 57.5C302.917 53.8333 304.75 49.4167 304.75 44.25C304.75 39.0417 302.917 34.625 299.25 31C295.583 27.3333 291.167 25.5 286 25.5C280.833 25.5 276.417 27.3333 272.75 31C269.083 34.625 267.25 39.0417 267.25 44.25C267.25 49.4167 269.083 53.8333 272.75 57.5C276.417 61.1667 280.833 63 286 63ZM286 0.5C298.083 0.5 308.396 4.77083 316.938 13.3125C325.479 21.8542 329.75 32.1667 329.75 44.25C329.75 56.3333 325.479 66.6458 316.938 75.1875C308.396 83.7292 298.083 88 286 88C273.917 88 263.604 83.7292 255.062 75.1875C246.521 66.6458 242.25 56.3333 242.25 44.25C242.25 32.1667 246.521 21.8542 255.062 13.3125C263.604 4.77083 273.917 0.5 286 0.5ZM336 0.5H361V63H379.75V88H336V0.5ZM386 0.5H411V63H429.75V88H386V0.5ZM444.125 88L419.75 0.5625H445.375L460.125 53.5L474.125 0.5H499.75V0.5625H501.625L516.375 53.5L530.375 0.5H556L532.875 88H500.375L488.188 44.25L476.625 88H444.125ZM584.75 0.5V88H559.75V0.5H584.75ZM619.125 0.5H659.75V25.5H619.125C618.25 25.5 617.5 25.8125 616.875 26.4375C616.292 27.0208 616 27.75 616 28.625C616 29.5 616.292 30.25 616.875 30.875C617.5 31.4583 618.25 31.75 619.125 31.75H631.625C639.375 31.75 646 34.5 651.5 40C657 45.5 659.75 52.125 659.75 59.875C659.75 67.625 657 74.25 651.5 79.75C646 85.25 639.375 88 631.625 88H591V63H631.625C632.5 63 633.229 62.7083 633.812 62.125C634.438 61.5 634.75 60.75 634.75 59.875C634.75 59 634.438 58.2708 633.812 57.6875C633.229 57.0625 632.5 56.75 631.625 56.75H619.125C611.375 56.75 604.75 54 599.25 48.5C593.75 43 591 36.375 591 28.625C591 20.875 593.75 14.25 599.25 8.75C604.75 3.25 611.375 0.5 619.125 0.5ZM709.75 0.5V25.5H691V31.75H709.75V56.75H691V63H709.75V88H666V0.5H709.75Z"/>
</mask>
<path d="M67.25 0.5H75.25V-7.5H67.25V0.5ZM67.25 25.5V33.5H75.25V25.5H67.25ZM24.375 26.4375L18.7181 20.7806L24.375 26.4375ZM24.375 30.875L18.5266 36.3335L18.7148 36.5352L18.9165 36.7234L24.375 30.875ZM-1.5 88H-9.5V96H-1.5V88ZM-1.5 63V55H-9.5V63H-1.5ZM41.3125 62.125L46.9694 67.7819L41.3125 62.125ZM41.3125 57.6875L35.4641 63.146L35.6523 63.3477L35.854 63.5359L41.3125 57.6875ZM26.625 8.5H67.25V-7.5H26.625V8.5ZM59.25 0.5V25.5H75.25V0.5H59.25ZM67.25 17.5H26.625V33.5H67.25V17.5ZM26.625 17.5C23.6042 17.5 20.8263 18.6725 18.7181 20.7806L30.0319 32.0944C29.6708 32.4554 29.1545 32.8393 28.4832 33.119C27.8102 33.3994 27.1616 33.5 26.625 33.5V17.5ZM18.7181 20.7806C16.5364 22.9623 15.5 25.7711 15.5 28.625H31.5C31.5 29.0892 31.4195 29.7106 31.1466 30.393C30.8699 31.0848 30.4669 31.6593 30.0319 32.0944L18.7181 20.7806ZM15.5 28.625C15.5 31.4736 16.525 34.1891 18.5266 36.3335L30.2234 25.4165C30.5816 25.8002 30.9296 26.3138 31.1748 26.9442C31.4187 27.5714 31.5 28.1576 31.5 28.625H15.5ZM18.9165 36.7234C21.0609 38.725 23.7764 39.75 26.625 39.75V23.75C27.0924 23.75 27.6786 23.8313 28.3058 24.0752C28.9362 24.3204 29.4498 24.6684 29.8335 25.0266L18.9165 36.7234ZM26.625 39.75H39.125V23.75H26.625V39.75ZM39.125 39.75C44.7446 39.75 49.3373 41.651 53.3431 45.6569L64.6569 34.3431C57.6627 27.349 49.0054 23.75 39.125 23.75V39.75ZM53.3431 45.6569C57.349 49.6627 59.25 54.2554 59.25 59.875H75.25C75.25 49.9946 71.651 41.3373 64.6569 34.3431L53.3431 45.6569ZM59.25 59.875C59.25 65.4946 57.349 70.0873 53.3431 74.0931L64.6569 85.4069C71.651 78.4127 75.25 69.7554 75.25 59.875H59.25ZM53.3431 74.0931C49.3373 78.099 44.7446 80 39.125 80V96C49.0054 96 57.6627 92.401 64.6569 85.4069L53.3431 74.0931ZM39.125 80H-1.5V96H39.125V80ZM6.5 88V63H-9.5V88H6.5ZM-1.5 71H39.125V55H-1.5V71ZM39.125 71C41.9789 71 44.7877 69.9636 46.9694 67.7819L35.6556 56.4681C36.0907 56.0331 36.6652 55.6301 37.357 55.3534C38.0394 55.0805 38.6608 55 39.125 55V71ZM46.9694 67.7819C49.0775 65.6737 50.25 62.8958 50.25 59.875H34.25C34.25 59.3384 34.3506 58.6898 34.631 58.0168C34.9107 57.3455 35.2946 56.8292 35.6556 56.4681L46.9694 67.7819ZM50.25 59.875C50.25 56.8415 49.0597 53.9752 46.771 51.8391L35.854 63.5359C35.4184 63.1295 34.9769 62.5568 34.6625 61.8232C34.3499 61.0939 34.25 60.4088 34.25 59.875H50.25ZM47.1609 52.229C45.0248 49.9403 42.1585 48.75 39.125 48.75V64.75C38.5912 64.75 37.9061 64.6501 37.1768 64.3375C36.4432 64.0231 35.8705 63.5816 35.4641 63.146L47.1609 52.229ZM39.125 48.75H26.625V64.75H39.125V48.75ZM26.625 48.75C21.0054 48.75 16.4127 46.849 12.4069 42.8431L1.09315 54.1569C8.0873 61.151 16.7446 64.75 26.625 64.75V48.75ZM12.4069 42.8431C8.401 38.8373 6.5 34.2446 6.5 28.625H-9.5C-9.5 38.5054 -5.901 47.1627 1.09315 54.1569L12.4069 42.8431ZM6.5 28.625C6.5 23.0054 8.401 18.4127 12.4069 14.4069L1.09315 3.09315C-5.901 10.0873 -9.5 18.7446 -9.5 28.625H6.5ZM12.4069 14.4069C16.4127 10.401 21.0054 8.5 26.625 8.5V-7.5C16.7446 -7.5 8.0873 -3.901 1.09315 3.09315L12.4069 14.4069ZM160.875 41.125V49.125H169.386L168.86 40.6298L160.875 41.125ZM135.75 41.125L127.839 42.3159L128.864 49.125H135.75V41.125ZM130.5 30.9375L136.157 25.2806L136.141 25.2645L136.124 25.2484L130.5 30.9375ZM104 31L109.624 36.6891L109.641 36.673L109.657 36.6569L104 31ZM104 57.5L109.657 51.8431L104 57.5ZM130.5 57.5L124.843 51.8431L130.5 57.5ZM135.75 47.375V39.375H128.875L127.841 46.1715L135.75 47.375ZM160.875 47.375L168.86 47.8702L169.386 39.375H160.875V47.375ZM117.25 8.5C127.212 8.5 135.49 11.9285 142.531 18.9694L153.844 7.65565C143.802 -2.38681 131.454 -7.5 117.25 -7.5V8.5ZM142.531 18.9694C148.978 25.4168 152.347 32.8658 152.89 41.6202L168.86 40.6298C168.069 27.8842 162.98 16.7916 153.844 7.65565L142.531 18.9694ZM160.875 33.125H135.75V49.125H160.875V33.125ZM143.661 39.9341C142.809 34.2753 140.215 29.3389 136.157 25.2806L124.843 36.5944C126.618 38.3694 127.524 40.2247 127.839 42.3159L143.661 39.9341ZM136.124 25.2484C130.957 20.1394 124.518 17.5 117.25 17.5V33.5C120.316 33.5 122.71 34.4856 124.876 36.6266L136.124 25.2484ZM117.25 17.5C109.953 17.5 103.504 20.1823 98.3431 25.3431L109.657 36.6569C111.829 34.4843 114.214 33.5 117.25 33.5V17.5ZM98.3756 25.3109C93.1715 30.4558 90.5 36.9285 90.5 44.25H106.5C106.5 41.1548 107.495 38.7942 109.624 36.6891L98.3756 25.3109ZM90.5 44.25C90.5 51.5471 93.1823 57.996 98.3431 63.1569L109.657 51.8431C107.484 49.6706 106.5 47.2863 106.5 44.25H90.5ZM98.3431 63.1569C103.504 68.3177 109.953 71 117.25 71V55C114.214 55 111.829 54.0157 109.657 51.8431L98.3431 63.1569ZM117.25 71C124.547 71 130.996 68.3177 136.157 63.1569L124.843 51.8431C122.671 54.0157 120.286 55 117.25 55V71ZM136.157 63.1569C140.198 59.1156 142.802 54.2093 143.659 48.5785L127.841 46.1715C127.531 48.2073 126.635 50.051 124.843 51.8431L136.157 63.1569ZM135.75 55.375H160.875V39.375H135.75V55.375ZM152.89 46.8798C152.347 55.6342 148.978 63.0832 142.531 69.5306L153.844 80.8444C162.98 71.7084 168.069 60.6158 168.86 47.8702L152.89 46.8798ZM142.531 69.5306C135.49 76.5715 127.212 80 117.25 80V96C131.454 96 143.802 90.8868 153.844 80.8444L142.531 69.5306ZM117.25 80C107.288 80 99.0102 76.5715 91.9694 69.5306L80.6556 80.8444C90.6981 90.8868 103.046 96 117.25 96V80ZM91.9694 69.5306C84.9285 62.4898 81.5 54.2123 81.5 44.25H65.5C65.5 58.4544 70.6132 70.8019 80.6556 80.8444L91.9694 69.5306ZM81.5 44.25C81.5 34.2877 84.9285 26.0102 91.9694 18.9694L80.6556 7.65565C70.6132 17.6981 65.5 30.0456 65.5 44.25H81.5ZM91.9694 18.9694C99.0102 11.9285 107.288 8.5 117.25 8.5V-7.5C103.046 -7.5 90.6981 -2.38681 80.6556 7.65565L91.9694 18.9694ZM167.25 0.5V-7.5H159.25V0.5H167.25ZM222.438 52.75L218.211 45.9576L212.597 49.4511L214.971 55.6227L222.438 52.75ZM236 88V96H247.65L243.466 85.1273L236 88ZM209.125 88L201.662 90.8808L203.638 96H209.125V88ZM197.062 56.75L204.526 53.8692L202.55 48.75H197.062V56.75ZM192.25 56.75V48.75H184.25V56.75H192.25ZM192.25 88V96H200.25V88H192.25ZM167.25 88H159.25V96H167.25V88ZM192.25 25.5V17.5H184.25V25.5H192.25ZM192.25 31.75H184.25V39.75H192.25V31.75ZM210.062 26.4375L204.214 31.896L204.402 32.0977L204.604 32.2859L210.062 26.4375ZM167.25 8.5H207.875V-7.5H167.25V8.5ZM207.875 8.5C213.495 8.5 218.087 10.401 222.093 14.4069L233.407 3.09315C226.413 -3.901 217.755 -7.5 207.875 -7.5V8.5ZM222.093 14.4069C226.099 18.4127 228 23.0054 228 28.625H244C244 18.7446 240.401 10.0873 233.407 3.09315L222.093 14.4069ZM228 28.625C228 34.2446 226.099 38.8373 222.093 42.8431L233.407 54.1569C240.401 47.1627 244 38.5054 244 28.625H228ZM222.093 42.8431C220.829 44.1068 219.534 45.1344 218.211 45.9576L226.664 59.5424C229.091 58.0322 231.337 56.2265 233.407 54.1569L222.093 42.8431ZM214.971 55.6227L228.534 90.8727L243.466 85.1273L229.904 49.8773L214.971 55.6227ZM236 80H209.125V96H236V80ZM216.588 85.1192L204.526 53.8692L189.599 59.6308L201.662 90.8808L216.588 85.1192ZM197.062 48.75H192.25V64.75H197.062V48.75ZM184.25 56.75V88H200.25V56.75H184.25ZM192.25 80H167.25V96H192.25V80ZM175.25 88V0.5H159.25V88H175.25ZM184.25 25.5V31.75H200.25V25.5H184.25ZM192.25 39.75H207.875V23.75H192.25V39.75ZM207.875 39.75C210.729 39.75 213.538 38.7136 215.719 36.5319L204.406 25.2181C204.841 24.7831 205.415 24.3801 206.107 24.1034C206.789 23.8305 207.411 23.75 207.875 23.75V39.75ZM215.719 36.5319C217.828 34.4237 219 31.6458 219 28.625H203C203 28.0884 203.101 27.4398 203.381 26.7668C203.661 26.0955 204.045 25.5792 204.406 25.2181L215.719 36.5319ZM219 28.625C219 25.5915 217.81 22.7252 215.521 20.5891L204.604 32.2859C204.168 31.8795 203.727 31.3068 203.412 30.5732C203.1 29.8439 203 29.1588 203 28.625H219ZM215.911 20.979C213.775 18.6903 210.908 17.5 207.875 17.5V33.5C207.341 33.5 206.656 33.4001 205.927 33.0875C205.193 32.7731 204.621 32.3316 204.214 31.896L215.911 20.979ZM207.875 17.5H192.25V33.5H207.875V17.5ZM299.25 57.5L293.593 51.8431L299.25 57.5ZM299.25 31L293.593 36.6569L293.609 36.673L293.626 36.6891L299.25 31ZM272.75 31L278.374 36.6891L278.391 36.673L278.407 36.6569L272.75 31ZM272.75 57.5L278.407 51.8431L272.75 57.5ZM286 71C293.297 71 299.746 68.3177 304.907 63.1569L293.593 51.8431C291.421 54.0157 289.036 55 286 55V71ZM304.907 63.1569C310.068 57.996 312.75 51.5471 312.75 44.25H296.75C296.75 47.2863 295.766 49.6706 293.593 51.8431L304.907 63.1569ZM312.75 44.25C312.75 36.9285 310.078 30.4558 304.874 25.3109L293.626 36.6891C295.755 38.7942 296.75 41.1548 296.75 44.25H312.75ZM304.907 25.3431C299.746 20.1823 293.297 17.5 286 17.5V33.5C289.036 33.5 291.421 34.4843 293.593 36.6569L304.907 25.3431ZM286 17.5C278.703 17.5 272.254 20.1823 267.093 25.3431L278.407 36.6569C280.579 34.4843 282.964 33.5 286 33.5V17.5ZM267.126 25.3109C261.922 30.4558 259.25 36.9285 259.25 44.25H275.25C275.25 41.1548 276.245 38.7942 278.374 36.6891L267.126 25.3109ZM259.25 44.25C259.25 51.5471 261.932 57.996 267.093 63.1569L278.407 51.8431C276.234 49.6706 275.25 47.2863 275.25 44.25H259.25ZM267.093 63.1569C272.254 68.3177 278.703 71 286 71V55C282.964 55 280.579 54.0157 278.407 51.8431L267.093 63.1569ZM286 8.5C295.962 8.5 304.24 11.9285 311.281 18.9694L322.594 7.65565C312.552 -2.38681 300.204 -7.5 286 -7.5V8.5ZM311.281 18.9694C318.322 26.0102 321.75 34.2877 321.75 44.25H337.75C337.75 30.0456 332.637 17.6981 322.594 7.65565L311.281 18.9694ZM321.75 44.25C321.75 54.2123 318.322 62.4898 311.281 69.5306L322.594 80.8444C332.637 70.8019 337.75 58.4544 337.75 44.25H321.75ZM311.281 69.5306C304.24 76.5715 295.962 80 286 80V96C300.204 96 312.552 90.8868 322.594 80.8444L311.281 69.5306ZM286 80C276.038 80 267.76 76.5715 260.719 69.5306L249.406 80.8444C259.448 90.8868 271.796 96 286 96V80ZM260.719 69.5306C253.678 62.4898 250.25 54.2123 250.25 44.25H234.25C234.25 58.4544 239.363 70.8019 249.406 80.8444L260.719 69.5306ZM250.25 44.25C250.25 34.2877 253.678 26.0102 260.719 18.9694L249.406 7.65565C239.363 17.6981 234.25 30.0456 234.25 44.25H250.25ZM260.719 18.9694C267.76 11.9285 276.038 8.5 286 8.5V-7.5C271.796 -7.5 259.448 -2.38681 249.406 7.65565L260.719 18.9694ZM336 0.5V-7.5H328V0.5H336ZM361 0.5H369V-7.5H361V0.5ZM361 63H353V71H361V63ZM379.75 63H387.75V55H379.75V63ZM379.75 88V96H387.75V88H379.75ZM336 88H328V96H336V88ZM336 8.5H361V-7.5H336V8.5ZM353 0.5V63H369V0.5H353ZM361 71H379.75V55H361V71ZM371.75 63V88H387.75V63H371.75ZM379.75 80H336V96H379.75V80ZM344 88V0.5H328V88H344ZM386 0.5V-7.5H378V0.5H386ZM411 0.5H419V-7.5H411V0.5ZM411 63H403V71H411V63ZM429.75 63H437.75V55H429.75V63ZM429.75 88V96H437.75V88H429.75ZM386 88H378V96H386V88ZM386 8.5H411V-7.5H386V8.5ZM403 0.5V63H419V0.5H403ZM411 71H429.75V55H411V71ZM421.75 63V88H437.75V63H421.75ZM429.75 80H386V96H429.75V80ZM394 88V0.5H378V88H394ZM444.125 88L436.419 90.1483L438.05 96H444.125V88ZM419.75 0.5625V-7.4375H409.215L412.044 2.71075L419.75 0.5625ZM445.375 0.5625L453.081 -1.58475L451.451 -7.4375H445.375V0.5625ZM460.125 53.5L452.419 55.6472L460.331 84.0448L467.86 55.5431L460.125 53.5ZM474.125 0.5V-7.5H467.964L466.39 -1.54313L474.125 0.5ZM499.75 0.5H507.75V-7.5H499.75V0.5ZM499.75 0.5625H491.75V8.5625H499.75V0.5625ZM501.625 0.5625L509.331 -1.58475L507.701 -7.4375H501.625V0.5625ZM516.375 53.5L508.669 55.6472L516.581 84.0448L524.11 55.5431L516.375 53.5ZM530.375 0.5V-7.5H524.214L522.64 -1.54313L530.375 0.5ZM556 0.5L563.734 2.5441L566.389 -7.5H556V0.5ZM532.875 88V96H539.035L540.609 90.0441L532.875 88ZM500.375 88L492.668 90.1468L494.299 96H500.375V88ZM488.188 44.25L495.894 42.1032L487.984 13.7092L480.453 42.2059L488.188 44.25ZM476.625 88V96H482.785L484.359 90.0441L476.625 88ZM451.831 85.8517L427.456 -1.58575L412.044 2.71075L436.419 90.1483L451.831 85.8517ZM419.75 8.5625H445.375V-7.4375H419.75V8.5625ZM437.669 2.70975L452.419 55.6472L467.831 51.3528L453.081 -1.58475L437.669 2.70975ZM467.86 55.5431L481.86 2.54313L466.39 -1.54313L452.39 51.4569L467.86 55.5431ZM474.125 8.5H499.75V-7.5H474.125V8.5ZM491.75 0.5V0.5625H507.75V0.5H491.75ZM499.75 8.5625H501.625V-7.4375H499.75V8.5625ZM493.919 2.70975L508.669 55.6472L524.081 51.3528L509.331 -1.58475L493.919 2.70975ZM524.11 55.5431L538.11 2.54313L522.64 -1.54313L508.64 51.4569L524.11 55.5431ZM530.375 8.5H556V-7.5H530.375V8.5ZM548.266 -1.5441L525.141 85.9559L540.609 90.0441L563.734 2.5441L548.266 -1.5441ZM532.875 80H500.375V96H532.875V80ZM508.082 85.8532L495.894 42.1032L480.481 46.3968L492.668 90.1468L508.082 85.8532ZM480.453 42.2059L468.891 85.9559L484.359 90.0441L495.922 46.2941L480.453 42.2059ZM476.625 80H444.125V96H476.625V80ZM584.75 0.5H592.75V-7.5H584.75V0.5ZM584.75 88V96H592.75V88H584.75ZM559.75 88H551.75V96H559.75V88ZM559.75 0.5V-7.5H551.75V0.5H559.75ZM576.75 0.5V88H592.75V0.5H576.75ZM584.75 80H559.75V96H584.75V80ZM567.75 88V0.5H551.75V88H567.75ZM559.75 8.5H584.75V-7.5H559.75V8.5ZM659.75 0.5H667.75V-7.5H659.75V0.5ZM659.75 25.5V33.5H667.75V25.5H659.75ZM616.875 26.4375L611.218 20.7806L616.875 26.4375ZM616.875 30.875L611.027 36.3335L611.215 36.5352L611.416 36.7234L616.875 30.875ZM591 88H583V96H591V88ZM591 63V55H583V63H591ZM633.812 62.125L639.469 67.7819L633.812 62.125ZM633.812 57.6875L627.964 63.146L628.152 63.3477L628.354 63.5359L633.812 57.6875ZM619.125 8.5H659.75V-7.5H619.125V8.5ZM651.75 0.5V25.5H667.75V0.5H651.75ZM659.75 17.5H619.125V33.5H659.75V17.5ZM619.125 17.5C616.104 17.5 613.326 18.6725 611.218 20.7806L622.532 32.0944C622.171 32.4554 621.655 32.8393 620.983 33.119C620.31 33.3994 619.662 33.5 619.125 33.5V17.5ZM611.218 20.7806C609.036 22.9623 608 25.7711 608 28.625H624C624 29.0892 623.92 29.7106 623.647 30.393C623.37 31.0848 622.967 31.6593 622.532 32.0944L611.218 20.7806ZM608 28.625C608 31.4736 609.025 34.1891 611.027 36.3335L622.723 25.4165C623.082 25.8002 623.43 26.3138 623.675 26.9442C623.919 27.5714 624 28.1576 624 28.625H608ZM611.416 36.7234C613.561 38.725 616.276 39.75 619.125 39.75V23.75C619.592 23.75 620.179 23.8313 620.806 24.0752C621.436 24.3204 621.95 24.6684 622.334 25.0266L611.416 36.7234ZM619.125 39.75H631.625V23.75H619.125V39.75ZM631.625 39.75C637.245 39.75 641.837 41.651 645.843 45.6569L657.157 34.3431C650.163 27.349 641.505 23.75 631.625 23.75V39.75ZM645.843 45.6569C649.849 49.6627 651.75 54.2554 651.75 59.875H667.75C667.75 49.9946 664.151 41.3373 657.157 34.3431L645.843 45.6569ZM651.75 59.875C651.75 65.4946 649.849 70.0873 645.843 74.0931L657.157 85.4069C664.151 78.4127 667.75 69.7554 667.75 59.875H651.75ZM645.843 74.0931C641.837 78.099 637.245 80 631.625 80V96C641.505 96 650.163 92.401 657.157 85.4069L645.843 74.0931ZM631.625 80H591V96H631.625V80ZM599 88V63H583V88H599ZM591 71H631.625V55H591V71ZM631.625 71C634.479 71 637.288 69.9636 639.469 67.7819L628.156 56.4681C628.591 56.0331 629.165 55.6301 629.857 55.3534C630.539 55.0805 631.161 55 631.625 55V71ZM639.469 67.7819C641.578 65.6737 642.75 62.8958 642.75 59.875H626.75C626.75 59.3384 626.851 58.6898 627.131 58.0168C627.411 57.3455 627.795 56.8292 628.156 56.4681L639.469 67.7819ZM642.75 59.875C642.75 56.8415 641.56 53.9752 639.271 51.8391L628.354 63.5359C627.918 63.1295 627.477 62.5568 627.162 61.8232C626.85 61.0939 626.75 60.4088 626.75 59.875H642.75ZM639.661 52.229C637.525 49.9403 634.658 48.75 631.625 48.75V64.75C631.091 64.75 630.406 64.6501 629.677 64.3375C628.943 64.0231 628.371 63.5816 627.964 63.146L639.661 52.229ZM631.625 48.75H619.125V64.75H631.625V48.75ZM619.125 48.75C613.505 48.75 608.913 46.849 604.907 42.8431L593.593 54.1569C600.587 61.151 609.245 64.75 619.125 64.75V48.75ZM604.907 42.8431C600.901 38.8373 599 34.2446 599 28.625H583C583 38.5054 586.599 47.1627 593.593 54.1569L604.907 42.8431ZM599 28.625C599 23.0054 600.901 18.4127 604.907 14.4069L593.593 3.09315C586.599 10.0873 583 18.7446 583 28.625H599ZM604.907 14.4069C608.913 10.401 613.505 8.5 619.125 8.5V-7.5C609.245 -7.5 600.587 -3.901 593.593 3.09315L604.907 14.4069ZM709.75 0.5H717.75V-7.5H709.75V0.5ZM709.75 25.5V33.5H717.75V25.5H709.75ZM691 25.5V17.5H683V25.5H691ZM691 31.75H683V39.75H691V31.75ZM709.75 31.75H717.75V23.75H709.75V31.75ZM709.75 56.75V64.75H717.75V56.75H709.75ZM691 56.75V48.75H683V56.75H691ZM691 63H683V71H691V63ZM709.75 63H717.75V55H709.75V63ZM709.75 88V96H717.75V88H709.75ZM666 88H658V96H666V88ZM666 0.5V-7.5H658V0.5H666ZM701.75 0.5V25.5H717.75V0.5H701.75ZM709.75 17.5H691V33.5H709.75V17.5ZM683 25.5V31.75H699V25.5H683ZM691 39.75H709.75V23.75H691V39.75ZM701.75 31.75V56.75H717.75V31.75H701.75ZM709.75 48.75H691V64.75H709.75V48.75ZM683 56.75V63H699V56.75H683ZM691 71H709.75V55H691V71ZM701.75 63V88H717.75V63H701.75ZM709.75 80H666V96H709.75V80ZM674 88V0.5H658V88H674ZM666 8.5H709.75V-7.5H666V8.5Z" fill="#F3FF90" mask="url(#path-1-outside-1_84_13)"/>
</g>
<defs>
<filter id="filter0_d_84_13" x="-6.3" y="0.5" width="720.85" height="100.3" filterUnits="userSpaceOnUse" color-interpolation-filters="sRGB">
<feFlood flood-opacity="0" result="BackgroundImageFix"/>
<feColorMatrix in="SourceAlpha" type="matrix" values="0 0 0 0 0 0 0 0 0 0 0 0 0 0 0 0 0 0 127 0" result="hardAlpha"/>
<feOffset dy="8"/>
<feGaussianBlur stdDeviation="2.4"/>
<feComposite in2="hardAlpha" operator="out"/>
<feColorMatrix type="matrix" values="0 0 0 0 0 0 0 0 0 0 0 0 0 0 0 0 0 0 0.25 0"/>
<feBlend mode="normal" in2="BackgroundImageFix" result="effect1_dropShadow_84_13"/>
<feBlend mode="normal" in="SourceGraphic" in2="effect1_dropShadow_84_13" result="shape"/>
</filter>
</defs>
</svg>
