<svg width="715" height="101" viewBox="0 0 715 101" fill="none" xmlns="http://www.w3.org/2000/svg">
<g filter="url(#filter0_d_84_15)">
<path d="M26.125 0.5H66.75V25.5H26.125C25.25 25.5 24.5 25.8125 23.875 26.4375C23.2917 27.0208 23 27.75 23 28.625C23 29.5 23.2917 30.25 23.875 30.875C24.5 31.4583 25.25 31.75 26.125 31.75H38.625C46.375 31.75 53 34.5 58.5 40C64 45.5 66.75 52.125 66.75 59.875C66.75 67.625 64 74.25 58.5 79.75C53 85.25 46.375 88 38.625 88H-2V63H38.625C39.5 63 40.2292 62.7083 40.8125 62.125C41.4375 61.5 41.75 60.75 41.75 59.875C41.75 59 41.4375 58.2708 40.8125 57.6875C40.2292 57.0625 39.5 56.75 38.625 56.75H26.125C18.375 56.75 11.75 54 6.25 48.5C0.75 43 -2 36.375 -2 28.625C-2 20.875 0.75 14.25 6.25 8.75C11.75 3.25 18.375 0.5 26.125 0.5ZM116.75 0.5C128.833 0.5 139.146 4.77083 147.688 13.3125C155.479 21.1042 159.708 30.375 160.375 41.125H135.25C134.667 37.25 132.917 33.8542 130 30.9375C126.333 27.3125 121.917 25.5 116.75 25.5C111.583 25.5 107.167 27.3333 103.5 31C99.8333 34.625 98 39.0417 98 44.25C98 49.4167 99.8333 53.8333 103.5 57.5C107.167 61.1667 111.583 63 116.75 63C121.917 63 126.333 61.1667 130 57.5C132.917 54.5833 134.667 51.2083 135.25 47.375H160.375C159.708 58.125 155.479 67.3958 147.688 75.1875C139.146 83.7292 128.833 88 116.75 88C104.667 88 94.3542 83.7292 85.8125 75.1875C77.2708 66.6458 73 56.3333 73 44.25C73 32.1667 77.2708 21.8542 85.8125 13.3125C94.3542 4.77083 104.667 0.5 116.75 0.5ZM166.75 0.5H207.375C215.125 0.5 221.75 3.25 227.25 8.75C232.75 14.25 235.5 20.875 235.5 28.625C235.5 36.375 232.75 43 227.25 48.5C225.583 50.1667 223.812 51.5833 221.938 52.75L235.5 88H208.625L196.562 56.75H191.75V88H166.75V0.5ZM191.75 25.5V31.75H207.375C208.25 31.75 208.979 31.4583 209.562 30.875C210.188 30.25 210.5 29.5 210.5 28.625C210.5 27.75 210.188 27.0208 209.562 26.4375C208.979 25.8125 208.25 25.5 207.375 25.5H191.75ZM285.5 63C290.667 63 295.083 61.1667 298.75 57.5C302.417 53.8333 304.25 49.4167 304.25 44.25C304.25 39.0417 302.417 34.625 298.75 31C295.083 27.3333 290.667 25.5 285.5 25.5C280.333 25.5 275.917 27.3333 272.25 31C268.583 34.625 266.75 39.0417 266.75 44.25C266.75 49.4167 268.583 53.8333 272.25 57.5C275.917 61.1667 280.333 63 285.5 63ZM285.5 0.5C297.583 0.5 307.896 4.77083 316.438 13.3125C324.979 21.8542 329.25 32.1667 329.25 44.25C329.25 56.3333 324.979 66.6458 316.438 75.1875C307.896 83.7292 297.583 88 285.5 88C273.417 88 263.104 83.7292 254.562 75.1875C246.021 66.6458 241.75 56.3333 241.75 44.25C241.75 32.1667 246.021 21.8542 254.562 13.3125C263.104 4.77083 273.417 0.5 285.5 0.5ZM335.5 0.5H360.5V63H379.25V88H335.5V0.5ZM385.5 0.5H410.5V63H429.25V88H385.5V0.5ZM443.625 88L419.25 0.5625H444.875L459.625 53.5L473.625 0.5H499.25V0.5625H501.125L515.875 53.5L529.875 0.5H555.5L532.375 88H499.875L487.688 44.25L476.125 88H443.625ZM584.25 0.5V88H559.25V0.5H584.25ZM618.625 0.5H659.25V25.5H618.625C617.75 25.5 617 25.8125 616.375 26.4375C615.792 27.0208 615.5 27.75 615.5 28.625C615.5 29.5 615.792 30.25 616.375 30.875C617 31.4583 617.75 31.75 618.625 31.75H631.125C638.875 31.75 645.5 34.5 651 40C656.5 45.5 659.25 52.125 659.25 59.875C659.25 67.625 656.5 74.25 651 79.75C645.5 85.25 638.875 88 631.125 88H590.5V63H631.125C632 63 632.729 62.7083 633.312 62.125C633.938 61.5 634.25 60.75 634.25 59.875C634.25 59 633.938 58.2708 633.312 57.6875C632.729 57.0625 632 56.75 631.125 56.75H618.625C610.875 56.75 604.25 54 598.75 48.5C593.25 43 590.5 36.375 590.5 28.625C590.5 20.875 593.25 14.25 598.75 8.75C604.25 3.25 610.875 0.5 618.625 0.5ZM709.25 0.5V25.5H690.5V31.75H709.25V56.75H690.5V63H709.25V88H665.5V0.5H709.25Z" fill="#F3FF90"/>
</g>
<defs>
<filter id="filter0_d_84_15" x="-6.8" y="0.5" width="720.85" height="100.3" filterUnits="userSpaceOnUse" color-interpolation-filters="sRGB">
<feFlood flood-opacity="0" result="BackgroundImageFix"/>
<feColorMatrix in="SourceAlpha" type="matrix" values="0 0 0 0 0 0 0 0 0 0 0 0 0 0 0 0 0 0 127 0" result="hardAlpha"/>
<feOffset dy="8"/>
<feGaussianBlur stdDeviation="2.4"/>
<feComposite in2="hardAlpha" operator="out"/>
<feColorMatrix type="matrix" values="0 0 0 0 0 0 0 0 0 0 0 0 0 0 0 0 0 0 0.25 0"/>
<feBlend mode="normal" in2="BackgroundImageFix" result="effect1_dropShadow_84_15"/>
<feBlend mode="normal" in="SourceGraphic" in2="effect1_dropShadow_84_15" result="shape"/>
</filter>
</defs>
</svg>
