<svg width="722" height="101" viewBox="0 0 722 101" fill="none" xmlns="http://www.w3.org/2000/svg">
<g filter="url(#filter0_d_84_17)">
<path d="M33.125 0.5H73.75V25.5H33.125C32.25 25.5 31.5 25.8125 30.875 26.4375C30.2917 27.0208 30 27.75 30 28.625C30 29.5 30.2917 30.25 30.875 30.875C31.5 31.4583 32.25 31.75 33.125 31.75H45.625C53.375 31.75 60 34.5 65.5 40C71 45.5 73.75 52.125 73.75 59.875C73.75 67.625 71 74.25 65.5 79.75C60 85.25 53.375 88 45.625 88H5V63H45.625C46.5 63 47.2292 62.7083 47.8125 62.125C48.4375 61.5 48.75 60.75 48.75 59.875C48.75 59 48.4375 58.2708 47.8125 57.6875C47.2292 57.0625 46.5 56.75 45.625 56.75H33.125C25.375 56.75 18.75 54 13.25 48.5C7.75 43 5 36.375 5 28.625C5 20.875 7.75 14.25 13.25 8.75C18.75 3.25 25.375 0.5 33.125 0.5ZM123.75 0.5C135.833 0.5 146.146 4.77083 154.688 13.3125C162.479 21.1042 166.708 30.375 167.375 41.125H142.25C141.667 37.25 139.917 33.8542 137 30.9375C133.333 27.3125 128.917 25.5 123.75 25.5C118.583 25.5 114.167 27.3333 110.5 31C106.833 34.625 105 39.0417 105 44.25C105 49.4167 106.833 53.8333 110.5 57.5C114.167 61.1667 118.583 63 123.75 63C128.917 63 133.333 61.1667 137 57.5C139.917 54.5833 141.667 51.2083 142.25 47.375H167.375C166.708 58.125 162.479 67.3958 154.688 75.1875C146.146 83.7292 135.833 88 123.75 88C111.667 88 101.354 83.7292 92.8125 75.1875C84.2708 66.6458 80 56.3333 80 44.25C80 32.1667 84.2708 21.8542 92.8125 13.3125C101.354 4.77083 111.667 0.5 123.75 0.5ZM173.75 0.5H214.375C222.125 0.5 228.75 3.25 234.25 8.75C239.75 14.25 242.5 20.875 242.5 28.625C242.5 36.375 239.75 43 234.25 48.5C232.583 50.1667 230.812 51.5833 228.938 52.75L242.5 88H215.625L203.562 56.75H198.75V88H173.75V0.5ZM198.75 25.5V31.75H214.375C215.25 31.75 215.979 31.4583 216.562 30.875C217.188 30.25 217.5 29.5 217.5 28.625C217.5 27.75 217.188 27.0208 216.562 26.4375C215.979 25.8125 215.25 25.5 214.375 25.5H198.75ZM292.5 63C297.667 63 302.083 61.1667 305.75 57.5C309.417 53.8333 311.25 49.4167 311.25 44.25C311.25 39.0417 309.417 34.625 305.75 31C302.083 27.3333 297.667 25.5 292.5 25.5C287.333 25.5 282.917 27.3333 279.25 31C275.583 34.625 273.75 39.0417 273.75 44.25C273.75 49.4167 275.583 53.8333 279.25 57.5C282.917 61.1667 287.333 63 292.5 63ZM292.5 0.5C304.583 0.5 314.896 4.77083 323.438 13.3125C331.979 21.8542 336.25 32.1667 336.25 44.25C336.25 56.3333 331.979 66.6458 323.438 75.1875C314.896 83.7292 304.583 88 292.5 88C280.417 88 270.104 83.7292 261.562 75.1875C253.021 66.6458 248.75 56.3333 248.75 44.25C248.75 32.1667 253.021 21.8542 261.562 13.3125C270.104 4.77083 280.417 0.5 292.5 0.5ZM342.5 0.5H367.5V63H386.25V88H342.5V0.5ZM392.5 0.5H417.5V63H436.25V88H392.5V0.5ZM450.625 88L426.25 0.5625H451.875L466.625 53.5L480.625 0.5H506.25V0.5625H508.125L522.875 53.5L536.875 0.5H562.5L539.375 88H506.875L494.688 44.25L483.125 88H450.625ZM591.25 0.5V88H566.25V0.5H591.25ZM625.625 0.5H666.25V25.5H625.625C624.75 25.5 624 25.8125 623.375 26.4375C622.792 27.0208 622.5 27.75 622.5 28.625C622.5 29.5 622.792 30.25 623.375 30.875C624 31.4583 624.75 31.75 625.625 31.75H638.125C645.875 31.75 652.5 34.5 658 40C663.5 45.5 666.25 52.125 666.25 59.875C666.25 67.625 663.5 74.25 658 79.75C652.5 85.25 645.875 88 638.125 88H597.5V63H638.125C639 63 639.729 62.7083 640.312 62.125C640.938 61.5 641.25 60.75 641.25 59.875C641.25 59 640.938 58.2708 640.312 57.6875C639.729 57.0625 639 56.75 638.125 56.75H625.625C617.875 56.75 611.25 54 605.75 48.5C600.25 43 597.5 36.375 597.5 28.625C597.5 20.875 600.25 14.25 605.75 8.75C611.25 3.25 617.875 0.5 625.625 0.5ZM716.25 0.5V25.5H697.5V31.75H716.25V56.75H697.5V63H716.25V88H672.5V0.5H716.25Z" fill="#F3FF90"/>
</g>
<defs>
<filter id="filter0_d_84_17" x="0.2" y="0.5" width="720.85" height="100.3" filterUnits="userSpaceOnUse" color-interpolation-filters="sRGB">
<feFlood flood-opacity="0" result="BackgroundImageFix"/>
<feColorMatrix in="SourceAlpha" type="matrix" values="0 0 0 0 0 0 0 0 0 0 0 0 0 0 0 0 0 0 127 0" result="hardAlpha"/>
<feOffset dy="8"/>
<feGaussianBlur stdDeviation="2.4"/>
<feComposite in2="hardAlpha" operator="out"/>
<feColorMatrix type="matrix" values="0 0 0 0 0 0 0 0 0 0 0 0 0 0 0 0 0 0 0.25 0"/>
<feBlend mode="normal" in2="BackgroundImageFix" result="effect1_dropShadow_84_17"/>
<feBlend mode="normal" in="SourceGraphic" in2="effect1_dropShadow_84_17" result="shape"/>
</filter>
</defs>
</svg>
