<svg width="738" height="117" viewBox="0 0 738 117" fill="none" xmlns="http://www.w3.org/2000/svg">
<g filter="url(#filter0_dd_84_16)">
<mask id="path-1-outside-1_84_16" maskUnits="userSpaceOnUse" x="5" y="0" width="728" height="104" fill="black">
<rect fill="white" x="5" width="728" height="104"/>
<path d="M41.125 8.5H81.75V33.5H41.125C40.25 33.5 39.5 33.8125 38.875 34.4375C38.2917 35.0208 38 35.75 38 36.625C38 37.5 38.2917 38.25 38.875 38.875C39.5 39.4583 40.25 39.75 41.125 39.75H53.625C61.375 39.75 68 42.5 73.5 48C79 53.5 81.75 60.125 81.75 67.875C81.75 75.625 79 82.25 73.5 87.75C68 93.25 61.375 96 53.625 96H13V71H53.625C54.5 71 55.2292 70.7083 55.8125 70.125C56.4375 69.5 56.75 68.75 56.75 67.875C56.75 67 56.4375 66.2708 55.8125 65.6875C55.2292 65.0625 54.5 64.75 53.625 64.75H41.125C33.375 64.75 26.75 62 21.25 56.5C15.75 51 13 44.375 13 36.625C13 28.875 15.75 22.25 21.25 16.75C26.75 11.25 33.375 8.5 41.125 8.5ZM131.75 8.5C143.833 8.5 154.146 12.7708 162.688 21.3125C170.479 29.1042 174.708 38.375 175.375 49.125H150.25C149.667 45.25 147.917 41.8542 145 38.9375C141.333 35.3125 136.917 33.5 131.75 33.5C126.583 33.5 122.167 35.3333 118.5 39C114.833 42.625 113 47.0417 113 52.25C113 57.4167 114.833 61.8333 118.5 65.5C122.167 69.1667 126.583 71 131.75 71C136.917 71 141.333 69.1667 145 65.5C147.917 62.5833 149.667 59.2083 150.25 55.375H175.375C174.708 66.125 170.479 75.3958 162.688 83.1875C154.146 91.7292 143.833 96 131.75 96C119.667 96 109.354 91.7292 100.812 83.1875C92.2708 74.6458 88 64.3333 88 52.25C88 40.1667 92.2708 29.8542 100.812 21.3125C109.354 12.7708 119.667 8.5 131.75 8.5ZM181.75 8.5H222.375C230.125 8.5 236.75 11.25 242.25 16.75C247.75 22.25 250.5 28.875 250.5 36.625C250.5 44.375 247.75 51 242.25 56.5C240.583 58.1667 238.812 59.5833 236.938 60.75L250.5 96H223.625L211.562 64.75H206.75V96H181.75V8.5ZM206.75 33.5V39.75H222.375C223.25 39.75 223.979 39.4583 224.562 38.875C225.188 38.25 225.5 37.5 225.5 36.625C225.5 35.75 225.188 35.0208 224.562 34.4375C223.979 33.8125 223.25 33.5 222.375 33.5H206.75ZM300.5 71C305.667 71 310.083 69.1667 313.75 65.5C317.417 61.8333 319.25 57.4167 319.25 52.25C319.25 47.0417 317.417 42.625 313.75 39C310.083 35.3333 305.667 33.5 300.5 33.5C295.333 33.5 290.917 35.3333 287.25 39C283.583 42.625 281.75 47.0417 281.75 52.25C281.75 57.4167 283.583 61.8333 287.25 65.5C290.917 69.1667 295.333 71 300.5 71ZM300.5 8.5C312.583 8.5 322.896 12.7708 331.438 21.3125C339.979 29.8542 344.25 40.1667 344.25 52.25C344.25 64.3333 339.979 74.6458 331.438 83.1875C322.896 91.7292 312.583 96 300.5 96C288.417 96 278.104 91.7292 269.562 83.1875C261.021 74.6458 256.75 64.3333 256.75 52.25C256.75 40.1667 261.021 29.8542 269.562 21.3125C278.104 12.7708 288.417 8.5 300.5 8.5ZM350.5 8.5H375.5V71H394.25V96H350.5V8.5ZM400.5 8.5H425.5V71H444.25V96H400.5V8.5ZM458.625 96L434.25 8.5625H459.875L474.625 61.5L488.625 8.5H514.25V8.5625H516.125L530.875 61.5L544.875 8.5H570.5L547.375 96H514.875L502.688 52.25L491.125 96H458.625ZM599.25 8.5V96H574.25V8.5H599.25ZM633.625 8.5H674.25V33.5H633.625C632.75 33.5 632 33.8125 631.375 34.4375C630.792 35.0208 630.5 35.75 630.5 36.625C630.5 37.5 630.792 38.25 631.375 38.875C632 39.4583 632.75 39.75 633.625 39.75H646.125C653.875 39.75 660.5 42.5 666 48C671.5 53.5 674.25 60.125 674.25 67.875C674.25 75.625 671.5 82.25 666 87.75C660.5 93.25 653.875 96 646.125 96H605.5V71H646.125C647 71 647.729 70.7083 648.312 70.125C648.938 69.5 649.25 68.75 649.25 67.875C649.25 67 648.938 66.2708 648.312 65.6875C647.729 65.0625 647 64.75 646.125 64.75H633.625C625.875 64.75 619.25 62 613.75 56.5C608.25 51 605.5 44.375 605.5 36.625C605.5 28.875 608.25 22.25 613.75 16.75C619.25 11.25 625.875 8.5 633.625 8.5ZM724.25 8.5V33.5H705.5V39.75H724.25V64.75H705.5V71H724.25V96H680.5V8.5H724.25Z"/>
</mask>
<path d="M81.75 8.5H89.75V0.5H81.75V8.5ZM81.75 33.5V41.5H89.75V33.5H81.75ZM38.875 34.4375L33.2181 28.7806L38.875 34.4375ZM38.875 38.875L33.0266 44.3335L33.2148 44.5352L33.4165 44.7234L38.875 38.875ZM13 96H5V104H13V96ZM13 71V63H5V71H13ZM55.8125 70.125L61.4694 75.7819L55.8125 70.125ZM55.8125 65.6875L49.9641 71.146L50.1523 71.3477L50.354 71.5359L55.8125 65.6875ZM41.125 16.5H81.75V0.5H41.125V16.5ZM73.75 8.5V33.5H89.75V8.5H73.75ZM81.75 25.5H41.125V41.5H81.75V25.5ZM41.125 25.5C38.1042 25.5 35.3263 26.6725 33.2181 28.7806L44.5319 40.0944C44.1708 40.4554 43.6545 40.8393 42.9832 41.119C42.3102 41.3994 41.6616 41.5 41.125 41.5V25.5ZM33.2181 28.7806C31.0364 30.9623 30 33.7711 30 36.625H46C46 37.0892 45.9195 37.7106 45.6466 38.393C45.3699 39.0848 44.9669 39.6593 44.5319 40.0944L33.2181 28.7806ZM30 36.625C30 39.4736 31.025 42.1891 33.0266 44.3335L44.7234 33.4165C45.0816 33.8002 45.4296 34.3138 45.6748 34.9442C45.9187 35.5714 46 36.1576 46 36.625H30ZM33.4165 44.7234C35.5609 46.725 38.2764 47.75 41.125 47.75V31.75C41.5924 31.75 42.1786 31.8313 42.8058 32.0752C43.4362 32.3204 43.9498 32.6684 44.3335 33.0266L33.4165 44.7234ZM41.125 47.75H53.625V31.75H41.125V47.75ZM53.625 47.75C59.2446 47.75 63.8373 49.651 67.8431 53.6569L79.1569 42.3431C72.1627 35.349 63.5054 31.75 53.625 31.75V47.75ZM67.8431 53.6569C71.849 57.6627 73.75 62.2554 73.75 67.875H89.75C89.75 57.9946 86.151 49.3373 79.1569 42.3431L67.8431 53.6569ZM73.75 67.875C73.75 73.4946 71.849 78.0873 67.8431 82.0931L79.1569 93.4069C86.151 86.4127 89.75 77.7554 89.75 67.875H73.75ZM67.8431 82.0931C63.8373 86.099 59.2446 88 53.625 88V104C63.5054 104 72.1627 100.401 79.1569 93.4069L67.8431 82.0931ZM53.625 88H13V104H53.625V88ZM21 96V71H5V96H21ZM13 79H53.625V63H13V79ZM53.625 79C56.4789 79 59.2877 77.9636 61.4694 75.7819L50.1556 64.4681C50.5907 64.0331 51.1652 63.6301 51.857 63.3534C52.5394 63.0805 53.1608 63 53.625 63V79ZM61.4694 75.7819C63.5775 73.6737 64.75 70.8958 64.75 67.875H48.75C48.75 67.3384 48.8506 66.6898 49.131 66.0168C49.4107 65.3455 49.7946 64.8292 50.1556 64.4681L61.4694 75.7819ZM64.75 67.875C64.75 64.8415 63.5597 61.9752 61.271 59.8391L50.354 71.5359C49.9184 71.1295 49.4769 70.5568 49.1625 69.8232C48.8499 69.0939 48.75 68.4088 48.75 67.875H64.75ZM61.6609 60.229C59.5248 57.9403 56.6585 56.75 53.625 56.75V72.75C53.0912 72.75 52.4061 72.6501 51.6768 72.3375C50.9432 72.0231 50.3705 71.5816 49.9641 71.146L61.6609 60.229ZM53.625 56.75H41.125V72.75H53.625V56.75ZM41.125 56.75C35.5054 56.75 30.9127 54.849 26.9069 50.8431L15.5931 62.1569C22.5873 69.151 31.2446 72.75 41.125 72.75V56.75ZM26.9069 50.8431C22.901 46.8373 21 42.2446 21 36.625H5C5 46.5054 8.599 55.1627 15.5931 62.1569L26.9069 50.8431ZM21 36.625C21 31.0054 22.901 26.4127 26.9069 22.4069L15.5931 11.0931C8.599 18.0873 5 26.7446 5 36.625H21ZM26.9069 22.4069C30.9127 18.401 35.5054 16.5 41.125 16.5V0.5C31.2446 0.5 22.5873 4.099 15.5931 11.0931L26.9069 22.4069ZM175.375 49.125V57.125H183.886L183.36 48.6298L175.375 49.125ZM150.25 49.125L142.339 50.3159L143.364 57.125H150.25V49.125ZM145 38.9375L150.657 33.2806L150.641 33.2645L150.624 33.2484L145 38.9375ZM118.5 39L124.124 44.6891L124.141 44.673L124.157 44.6569L118.5 39ZM118.5 65.5L124.157 59.8431L118.5 65.5ZM145 65.5L139.343 59.8431L145 65.5ZM150.25 55.375V47.375H143.375L142.341 54.1715L150.25 55.375ZM175.375 55.375L183.36 55.8702L183.886 47.375H175.375V55.375ZM131.75 16.5C141.712 16.5 149.99 19.9285 157.031 26.9694L168.344 15.6556C158.302 5.61319 145.954 0.5 131.75 0.5V16.5ZM157.031 26.9694C163.478 33.4168 166.847 40.8658 167.39 49.6202L183.36 48.6298C182.569 35.8842 177.48 24.7916 168.344 15.6556L157.031 26.9694ZM175.375 41.125H150.25V57.125H175.375V41.125ZM158.161 47.9341C157.309 42.2753 154.715 37.3389 150.657 33.2806L139.343 44.5944C141.118 46.3694 142.024 48.2247 142.339 50.3159L158.161 47.9341ZM150.624 33.2484C145.457 28.1394 139.018 25.5 131.75 25.5V41.5C134.816 41.5 137.21 42.4856 139.376 44.6266L150.624 33.2484ZM131.75 25.5C124.453 25.5 118.004 28.1823 112.843 33.3431L124.157 44.6569C126.329 42.4843 128.714 41.5 131.75 41.5V25.5ZM112.876 33.3109C107.672 38.4558 105 44.9285 105 52.25H121C121 49.1548 121.995 46.7942 124.124 44.6891L112.876 33.3109ZM105 52.25C105 59.5471 107.682 65.996 112.843 71.1569L124.157 59.8431C121.984 57.6706 121 55.2863 121 52.25H105ZM112.843 71.1569C118.004 76.3177 124.453 79 131.75 79V63C128.714 63 126.329 62.0157 124.157 59.8431L112.843 71.1569ZM131.75 79C139.047 79 145.496 76.3177 150.657 71.1569L139.343 59.8431C137.171 62.0157 134.786 63 131.75 63V79ZM150.657 71.1569C154.698 67.1156 157.302 62.2093 158.159 56.5785L142.341 54.1715C142.031 56.2073 141.135 58.051 139.343 59.8431L150.657 71.1569ZM150.25 63.375H175.375V47.375H150.25V63.375ZM167.39 54.8798C166.847 63.6342 163.478 71.0832 157.031 77.5306L168.344 88.8444C177.48 79.7084 182.569 68.6158 183.36 55.8702L167.39 54.8798ZM157.031 77.5306C149.99 84.5715 141.712 88 131.75 88V104C145.954 104 158.302 98.8868 168.344 88.8444L157.031 77.5306ZM131.75 88C121.788 88 113.51 84.5715 106.469 77.5306L95.1556 88.8444C105.198 98.8868 117.546 104 131.75 104V88ZM106.469 77.5306C99.4285 70.4898 96 62.2123 96 52.25H80C80 66.4544 85.1132 78.8019 95.1556 88.8444L106.469 77.5306ZM96 52.25C96 42.2877 99.4285 34.0102 106.469 26.9694L95.1556 15.6556C85.1132 25.6981 80 38.0456 80 52.25H96ZM106.469 26.9694C113.51 19.9285 121.788 16.5 131.75 16.5V0.5C117.546 0.5 105.198 5.61319 95.1556 15.6556L106.469 26.9694ZM181.75 8.5V0.5H173.75V8.5H181.75ZM236.938 60.75L232.711 53.9576L227.097 57.4511L229.471 63.6227L236.938 60.75ZM250.5 96V104H262.15L257.966 93.1273L250.5 96ZM223.625 96L216.162 98.8808L218.138 104H223.625V96ZM211.562 64.75L219.026 61.8692L217.05 56.75H211.562V64.75ZM206.75 64.75V56.75H198.75V64.75H206.75ZM206.75 96V104H214.75V96H206.75ZM181.75 96H173.75V104H181.75V96ZM206.75 33.5V25.5H198.75V33.5H206.75ZM206.75 39.75H198.75V47.75H206.75V39.75ZM224.562 34.4375L218.714 39.896L218.902 40.0977L219.104 40.2859L224.562 34.4375ZM181.75 16.5H222.375V0.5H181.75V16.5ZM222.375 16.5C227.995 16.5 232.587 18.401 236.593 22.4069L247.907 11.0931C240.913 4.099 232.255 0.5 222.375 0.5V16.5ZM236.593 22.4069C240.599 26.4127 242.5 31.0054 242.5 36.625H258.5C258.5 26.7446 254.901 18.0873 247.907 11.0931L236.593 22.4069ZM242.5 36.625C242.5 42.2446 240.599 46.8373 236.593 50.8431L247.907 62.1569C254.901 55.1627 258.5 46.5054 258.5 36.625H242.5ZM236.593 50.8431C235.329 52.1068 234.034 53.1344 232.711 53.9576L241.164 67.5424C243.591 66.0322 245.837 64.2265 247.907 62.1569L236.593 50.8431ZM229.471 63.6227L243.034 98.8727L257.966 93.1273L244.404 57.8773L229.471 63.6227ZM250.5 88H223.625V104H250.5V88ZM231.088 93.1192L219.026 61.8692L204.099 67.6308L216.162 98.8808L231.088 93.1192ZM211.562 56.75H206.75V72.75H211.562V56.75ZM198.75 64.75V96H214.75V64.75H198.75ZM206.75 88H181.75V104H206.75V88ZM189.75 96V8.5H173.75V96H189.75ZM198.75 33.5V39.75H214.75V33.5H198.75ZM206.75 47.75H222.375V31.75H206.75V47.75ZM222.375 47.75C225.229 47.75 228.038 46.7136 230.219 44.5319L218.906 33.2181C219.341 32.7831 219.915 32.3801 220.607 32.1034C221.289 31.8305 221.911 31.75 222.375 31.75V47.75ZM230.219 44.5319C232.328 42.4237 233.5 39.6458 233.5 36.625H217.5C217.5 36.0884 217.601 35.4398 217.881 34.7668C218.161 34.0955 218.545 33.5792 218.906 33.2181L230.219 44.5319ZM233.5 36.625C233.5 33.5915 232.31 30.7252 230.021 28.5891L219.104 40.2859C218.668 39.8795 218.227 39.3068 217.912 38.5732C217.6 37.8439 217.5 37.1588 217.5 36.625H233.5ZM230.411 28.979C228.275 26.6903 225.408 25.5 222.375 25.5V41.5C221.841 41.5 221.156 41.4001 220.427 41.0875C219.693 40.7731 219.121 40.3316 218.714 39.896L230.411 28.979ZM222.375 25.5H206.75V41.5H222.375V25.5ZM313.75 65.5L308.093 59.8431L313.75 65.5ZM313.75 39L308.093 44.6569L308.109 44.673L308.126 44.6891L313.75 39ZM287.25 39L292.874 44.6891L292.891 44.673L292.907 44.6569L287.25 39ZM287.25 65.5L292.907 59.8431L287.25 65.5ZM300.5 79C307.797 79 314.246 76.3177 319.407 71.1569L308.093 59.8431C305.921 62.0157 303.536 63 300.5 63V79ZM319.407 71.1569C324.568 65.996 327.25 59.5471 327.25 52.25H311.25C311.25 55.2863 310.266 57.6706 308.093 59.8431L319.407 71.1569ZM327.25 52.25C327.25 44.9285 324.578 38.4558 319.374 33.3109L308.126 44.6891C310.255 46.7942 311.25 49.1548 311.25 52.25H327.25ZM319.407 33.3431C314.246 28.1823 307.797 25.5 300.5 25.5V41.5C303.536 41.5 305.921 42.4843 308.093 44.6569L319.407 33.3431ZM300.5 25.5C293.203 25.5 286.754 28.1823 281.593 33.3431L292.907 44.6569C295.079 42.4843 297.464 41.5 300.5 41.5V25.5ZM281.626 33.3109C276.422 38.4558 273.75 44.9285 273.75 52.25H289.75C289.75 49.1548 290.745 46.7942 292.874 44.6891L281.626 33.3109ZM273.75 52.25C273.75 59.5471 276.432 65.996 281.593 71.1569L292.907 59.8431C290.734 57.6706 289.75 55.2863 289.75 52.25H273.75ZM281.593 71.1569C286.754 76.3177 293.203 79 300.5 79V63C297.464 63 295.079 62.0157 292.907 59.8431L281.593 71.1569ZM300.5 16.5C310.462 16.5 318.74 19.9285 325.781 26.9694L337.094 15.6556C327.052 5.61319 314.704 0.5 300.5 0.5V16.5ZM325.781 26.9694C332.822 34.0102 336.25 42.2877 336.25 52.25H352.25C352.25 38.0456 347.137 25.6981 337.094 15.6556L325.781 26.9694ZM336.25 52.25C336.25 62.2123 332.822 70.4898 325.781 77.5306L337.094 88.8444C347.137 78.8019 352.25 66.4544 352.25 52.25H336.25ZM325.781 77.5306C318.74 84.5715 310.462 88 300.5 88V104C314.704 104 327.052 98.8868 337.094 88.8444L325.781 77.5306ZM300.5 88C290.538 88 282.26 84.5715 275.219 77.5306L263.906 88.8444C273.948 98.8868 286.296 104 300.5 104V88ZM275.219 77.5306C268.178 70.4898 264.75 62.2123 264.75 52.25H248.75C248.75 66.4544 253.863 78.8019 263.906 88.8444L275.219 77.5306ZM264.75 52.25C264.75 42.2877 268.178 34.0102 275.219 26.9694L263.906 15.6556C253.863 25.6981 248.75 38.0456 248.75 52.25H264.75ZM275.219 26.9694C282.26 19.9285 290.538 16.5 300.5 16.5V0.5C286.296 0.5 273.948 5.61319 263.906 15.6556L275.219 26.9694ZM350.5 8.5V0.5H342.5V8.5H350.5ZM375.5 8.5H383.5V0.5H375.5V8.5ZM375.5 71H367.5V79H375.5V71ZM394.25 71H402.25V63H394.25V71ZM394.25 96V104H402.25V96H394.25ZM350.5 96H342.5V104H350.5V96ZM350.5 16.5H375.5V0.5H350.5V16.5ZM367.5 8.5V71H383.5V8.5H367.5ZM375.5 79H394.25V63H375.5V79ZM386.25 71V96H402.25V71H386.25ZM394.25 88H350.5V104H394.25V88ZM358.5 96V8.5H342.5V96H358.5ZM400.5 8.5V0.5H392.5V8.5H400.5ZM425.5 8.5H433.5V0.5H425.5V8.5ZM425.5 71H417.5V79H425.5V71ZM444.25 71H452.25V63H444.25V71ZM444.25 96V104H452.25V96H444.25ZM400.5 96H392.5V104H400.5V96ZM400.5 16.5H425.5V0.5H400.5V16.5ZM417.5 8.5V71H433.5V8.5H417.5ZM425.5 79H444.25V63H425.5V79ZM436.25 71V96H452.25V71H436.25ZM444.25 88H400.5V104H444.25V88ZM408.5 96V8.5H392.5V96H408.5ZM458.625 96L450.919 98.1483L452.55 104H458.625V96ZM434.25 8.5625V0.5625H423.715L426.544 10.7108L434.25 8.5625ZM459.875 8.5625L467.581 6.41525L465.951 0.5625H459.875V8.5625ZM474.625 61.5L466.919 63.6472L474.831 92.0448L482.36 63.5431L474.625 61.5ZM488.625 8.5V0.5H482.464L480.89 6.45687L488.625 8.5ZM514.25 8.5H522.25V0.5H514.25V8.5ZM514.25 8.5625H506.25V16.5625H514.25V8.5625ZM516.125 8.5625L523.831 6.41525L522.201 0.5625H516.125V8.5625ZM530.875 61.5L523.169 63.6472L531.081 92.0448L538.61 63.5431L530.875 61.5ZM544.875 8.5V0.5H538.714L537.14 6.45687L544.875 8.5ZM570.5 8.5L578.234 10.5441L580.889 0.5H570.5V8.5ZM547.375 96V104H553.535L555.109 98.0441L547.375 96ZM514.875 96L507.168 98.1468L508.799 104H514.875V96ZM502.688 52.25L510.394 50.1032L502.484 21.7092L494.953 50.2059L502.688 52.25ZM491.125 96V104H497.285L498.859 98.0441L491.125 96ZM466.331 93.8517L441.956 6.41425L426.544 10.7108L450.919 98.1483L466.331 93.8517ZM434.25 16.5625H459.875V0.5625H434.25V16.5625ZM452.169 10.7098L466.919 63.6472L482.331 59.3528L467.581 6.41525L452.169 10.7098ZM482.36 63.5431L496.36 10.5431L480.89 6.45687L466.89 59.4569L482.36 63.5431ZM488.625 16.5H514.25V0.5H488.625V16.5ZM506.25 8.5V8.5625H522.25V8.5H506.25ZM514.25 16.5625H516.125V0.5625H514.25V16.5625ZM508.419 10.7098L523.169 63.6472L538.581 59.3528L523.831 6.41525L508.419 10.7098ZM538.61 63.5431L552.61 10.5431L537.14 6.45687L523.14 59.4569L538.61 63.5431ZM544.875 16.5H570.5V0.5H544.875V16.5ZM562.766 6.4559L539.641 93.9559L555.109 98.0441L578.234 10.5441L562.766 6.4559ZM547.375 88H514.875V104H547.375V88ZM522.582 93.8532L510.394 50.1032L494.981 54.3968L507.168 98.1468L522.582 93.8532ZM494.953 50.2059L483.391 93.9559L498.859 98.0441L510.422 54.2941L494.953 50.2059ZM491.125 88H458.625V104H491.125V88ZM599.25 8.5H607.25V0.5H599.25V8.5ZM599.25 96V104H607.25V96H599.25ZM574.25 96H566.25V104H574.25V96ZM574.25 8.5V0.5H566.25V8.5H574.25ZM591.25 8.5V96H607.25V8.5H591.25ZM599.25 88H574.25V104H599.25V88ZM582.25 96V8.5H566.25V96H582.25ZM574.25 16.5H599.25V0.5H574.25V16.5ZM674.25 8.5H682.25V0.5H674.25V8.5ZM674.25 33.5V41.5H682.25V33.5H674.25ZM631.375 34.4375L625.718 28.7806L631.375 34.4375ZM631.375 38.875L625.527 44.3335L625.715 44.5352L625.916 44.7234L631.375 38.875ZM605.5 96H597.5V104H605.5V96ZM605.5 71V63H597.5V71H605.5ZM648.312 70.125L653.969 75.7819L648.312 70.125ZM648.312 65.6875L642.464 71.146L642.652 71.3477L642.854 71.5359L648.312 65.6875ZM633.625 16.5H674.25V0.5H633.625V16.5ZM666.25 8.5V33.5H682.25V8.5H666.25ZM674.25 25.5H633.625V41.5H674.25V25.5ZM633.625 25.5C630.604 25.5 627.826 26.6725 625.718 28.7806L637.032 40.0944C636.671 40.4554 636.155 40.8393 635.483 41.119C634.81 41.3994 634.162 41.5 633.625 41.5V25.5ZM625.718 28.7806C623.536 30.9623 622.5 33.7711 622.5 36.625H638.5C638.5 37.0892 638.42 37.7106 638.147 38.393C637.87 39.0848 637.467 39.6593 637.032 40.0944L625.718 28.7806ZM622.5 36.625C622.5 39.4736 623.525 42.1891 625.527 44.3335L637.223 33.4165C637.582 33.8002 637.93 34.3138 638.175 34.9442C638.419 35.5714 638.5 36.1576 638.5 36.625H622.5ZM625.916 44.7234C628.061 46.725 630.776 47.75 633.625 47.75V31.75C634.092 31.75 634.679 31.8313 635.306 32.0752C635.936 32.3204 636.45 32.6684 636.834 33.0266L625.916 44.7234ZM633.625 47.75H646.125V31.75H633.625V47.75ZM646.125 47.75C651.745 47.75 656.337 49.651 660.343 53.6569L671.657 42.3431C664.663 35.349 656.005 31.75 646.125 31.75V47.75ZM660.343 53.6569C664.349 57.6627 666.25 62.2554 666.25 67.875H682.25C682.25 57.9946 678.651 49.3373 671.657 42.3431L660.343 53.6569ZM666.25 67.875C666.25 73.4946 664.349 78.0873 660.343 82.0931L671.657 93.4069C678.651 86.4127 682.25 77.7554 682.25 67.875H666.25ZM660.343 82.0931C656.337 86.099 651.745 88 646.125 88V104C656.005 104 664.663 100.401 671.657 93.4069L660.343 82.0931ZM646.125 88H605.5V104H646.125V88ZM613.5 96V71H597.5V96H613.5ZM605.5 79H646.125V63H605.5V79ZM646.125 79C648.979 79 651.788 77.9636 653.969 75.7819L642.656 64.4681C643.091 64.0331 643.665 63.6301 644.357 63.3534C645.039 63.0805 645.661 63 646.125 63V79ZM653.969 75.7819C656.078 73.6737 657.25 70.8958 657.25 67.875H641.25C641.25 67.3384 641.351 66.6898 641.631 66.0168C641.911 65.3455 642.295 64.8292 642.656 64.4681L653.969 75.7819ZM657.25 67.875C657.25 64.8415 656.06 61.9752 653.771 59.8391L642.854 71.5359C642.418 71.1295 641.977 70.5568 641.662 69.8232C641.35 69.0939 641.25 68.4088 641.25 67.875H657.25ZM654.161 60.229C652.025 57.9403 649.158 56.75 646.125 56.75V72.75C645.591 72.75 644.906 72.6501 644.177 72.3375C643.443 72.0231 642.871 71.5816 642.464 71.146L654.161 60.229ZM646.125 56.75H633.625V72.75H646.125V56.75ZM633.625 56.75C628.005 56.75 623.413 54.849 619.407 50.8431L608.093 62.1569C615.087 69.151 623.745 72.75 633.625 72.75V56.75ZM619.407 50.8431C615.401 46.8373 613.5 42.2446 613.5 36.625H597.5C597.5 46.5054 601.099 55.1627 608.093 62.1569L619.407 50.8431ZM613.5 36.625C613.5 31.0054 615.401 26.4127 619.407 22.4069L608.093 11.0931C601.099 18.0873 597.5 26.7446 597.5 36.625H613.5ZM619.407 22.4069C623.413 18.401 628.005 16.5 633.625 16.5V0.5C623.745 0.5 615.087 4.099 608.093 11.0931L619.407 22.4069ZM724.25 8.5H732.25V0.5H724.25V8.5ZM724.25 33.5V41.5H732.25V33.5H724.25ZM705.5 33.5V25.5H697.5V33.5H705.5ZM705.5 39.75H697.5V47.75H705.5V39.75ZM724.25 39.75H732.25V31.75H724.25V39.75ZM724.25 64.75V72.75H732.25V64.75H724.25ZM705.5 64.75V56.75H697.5V64.75H705.5ZM705.5 71H697.5V79H705.5V71ZM724.25 71H732.25V63H724.25V71ZM724.25 96V104H732.25V96H724.25ZM680.5 96H672.5V104H680.5V96ZM680.5 8.5V0.5H672.5V8.5H680.5ZM716.25 8.5V33.5H732.25V8.5H716.25ZM724.25 25.5H705.5V41.5H724.25V25.5ZM697.5 33.5V39.75H713.5V33.5H697.5ZM705.5 47.75H724.25V31.75H705.5V47.75ZM716.25 39.75V64.75H732.25V39.75H716.25ZM724.25 56.75H705.5V72.75H724.25V56.75ZM697.5 64.75V71H713.5V64.75H697.5ZM705.5 79H724.25V63H705.5V79ZM716.25 71V96H732.25V71H716.25ZM724.25 88H680.5V104H724.25V88ZM688.5 96V8.5H672.5V96H688.5ZM680.5 16.5H724.25V0.5H680.5V16.5Z" fill="#F3FF90" mask="url(#path-1-outside-1_84_16)"/>
</g>
<defs>
<filter id="filter0_dd_84_16" x="0.2" y="0.5" width="736.85" height="116.3" filterUnits="userSpaceOnUse" color-interpolation-filters="sRGB">
<feFlood flood-opacity="0" result="BackgroundImageFix"/>
<feColorMatrix in="SourceAlpha" type="matrix" values="0 0 0 0 0 0 0 0 0 0 0 0 0 0 0 0 0 0 127 0" result="hardAlpha"/>
<feOffset dy="8"/>
<feGaussianBlur stdDeviation="2.4"/>
<feComposite in2="hardAlpha" operator="out"/>
<feColorMatrix type="matrix" values="0 0 0 0 0 0 0 0 0 0 0 0 0 0 0 0 0 0 0.25 0"/>
<feBlend mode="normal" in2="BackgroundImageFix" result="effect1_dropShadow_84_16"/>
<feColorMatrix in="SourceAlpha" type="matrix" values="0 0 0 0 0 0 0 0 0 0 0 0 0 0 0 0 0 0 127 0" result="hardAlpha"/>
<feOffset dy="4"/>
<feGaussianBlur stdDeviation="2"/>
<feComposite in2="hardAlpha" operator="out"/>
<feColorMatrix type="matrix" values="0 0 0 0 0 0 0 0 0 0 0 0 0 0 0 0 0 0 0.25 0"/>
<feBlend mode="normal" in2="effect1_dropShadow_84_16" result="effect2_dropShadow_84_16"/>
<feBlend mode="normal" in="SourceGraphic" in2="effect2_dropShadow_84_16" result="shape"/>
</filter>
</defs>
</svg>
